<?xml version="1.0" encoding="utf-8"?>
<svg id="Layer_1" x="0px" y="0px" width="512px" height="512px" viewBox="0 0 512 512" xmlns="http://www.w3.org/2000/svg" xmlns:bx="https://boxy-svg.com">
  <path class="path1" d="M 229.189 143.117 C 248.199 143.117 237.522 189.992 220.856 189.992 C 229.189 189.992 220.856 229.054 204.189 229.054 C 204.189 244.679 187.522 252.492 170.856 252.492 C 100.451 252.492 125.214 235.976 54.189 229.054 L 54.189 104.054 C 116.929 86.411 179.189 42.183 179.189 2.492 C 192.991 2.492 229.189 18.117 179.189 96.242 C 179.189 96.242 220.856 96.242 229.189 96.242 C 254.189 96.242 245.856 143.117 229.189 143.117 Z M 37.522 104.054 L 37.522 229.054 L 54.189 229.054 L 54.189 236.867 L 20.856 236.867 C 11.689 236.867 4.189 226.32 4.189 213.429 L 4.189 119.679 C 4.189 106.789 11.689 96.242 20.856 96.242 L 54.189 96.242 L 54.189 104.054 L 37.522 104.054 Z" style="fill: green;" bx:origin="0.5 0.5"/>
  <path class="path1" d="M 282.408 367.73 C 263.396 367.73 274.074 320.854 290.74 320.854 C 282.408 320.854 290.74 281.792 307.407 281.792 C 307.407 266.167 324.074 258.354 340.74 258.354 C 411.144 258.354 386.382 274.871 457.407 281.792 L 457.407 406.792 C 394.666 424.436 332.407 468.662 332.407 508.354 C 318.605 508.354 282.408 492.729 332.407 414.604 C 332.407 414.604 290.74 414.604 282.408 414.604 C 257.407 414.604 265.74 367.73 282.408 367.73 Z M 474.074 406.792 L 474.074 281.792 L 457.407 281.792 L 457.407 273.979 L 490.741 273.979 C 499.907 273.979 507.407 284.526 507.407 297.417 L 507.407 391.167 C 507.407 404.057 499.907 414.604 490.741 414.604 L 457.407 414.604 L 457.407 406.792 L 474.074 406.792 Z" style="fill: red;" bx:origin="0.5 0.5"/>
</svg>